PathFileType	4	(X/Y/Z)	C:\Users\Public\Documents\Vicon Data\AADs Machine\Fixing_spring_distance_56\90_lb_Spring\Brian_90_01.trc
DataRate	CameraRate	NumFrames	NumMarkers	Units	OrigDataRate	OrigDataStartFrame	OrigNumFrames
100.0	100.0	19	8	mm	100.0	1	1302	
Frame#	Time	SpringTop			MMAL			LMAL			Shank			Heel			Foot			Toe			MP5			
		X1	Y1	Z1	X2	Y2	Z2	X3	Y3	Z3	X4	Y4	Z4	X5	Y5	Z5	X6	Y6	Z6	X7	Y7	Z7	X8	Y8	Z8	
1	0	-358.15463	143.68533	-608.55548	-289.38422	102.98856	-672.02582	-272.67416	110.72855	-550.97833	-222.30592	276.11703	-623.59998	-357.1326	84.990067	-607.16406	-178.67404	57.201618	-613.97412	-105.46406	38.84174	-630.34607	-164.95979	39.989529	-562.00281
2	0.01	-358.10507	143.73062	-608.51605	-289.37592	103.04006	-672.03815	-272.65347	110.73121	-550.99353	-222.25592	276.12552	-623.63086	-357.11612	85.007126	-607.12781	-178.6667	57.218246	-613.97943	-105.43621	38.861439	-630.35229	-164.94254	40.012463	-562.00305
3	0.02	-358.13275	143.69679	-608.48871	-289.38785	103.02718	-672.03754	-272.65277	110.68074	-551.02283	-222.24799	276.10641	-623.63171	-357.10214	84.985443	-607.05554	-178.63722	57.205475	-613.97467	-105.45337	38.840668	-630.31934	-164.93196	39.984089	-561.98169
4	0.03	-358.12024	143.69421	-608.50647	-289.37573	103.01373	-672.05206	-272.65442	110.71825	-551.01208	-222.26152	276.08746	-623.63831	-357.0903	84.96933	-607.10889	-178.66548	57.182629	-613.98492	-105.45565	38.806129	-630.35107	-164.96873	39.961147	-561.99615
5	0.04	-358.10223	143.71167	-608.58813	-289.38712	103.00686	-672.03076	-272.65103	110.74167	-550.99005	-222.2605	276.13354	-623.61603	-357.12408	85.018509	-607.14801	-178.65732	57.224773	-613.97278	-105.4467	38.849812	-630.3407	-164.95415	39.993309	-562.00153
6	0.05	-358.09216	143.70882	-608.44983	-289.37326	103.00334	-672.03302	-272.6308	110.72716	-551.01178	-222.25795	276.10092	-623.62	-357.06894	85.007813	-607.00238	-178.64293	57.204506	-613.9834	-105.44124	38.847107	-630.35364	-164.94743	39.979225	-562.00293
7	0.06	-358.11938	143.66168	-608.56689	-289.39236	102.98949	-672.01971	-272.64111	110.71401	-551.00372	-222.26619	276.10172	-623.61786	-357.07111	84.988403	-607.04596	-178.63696	57.207886	-613.96625	-105.45551	38.865097	-630.35345	-164.95926	39.98077	-561.99951
8	0.07	-358.11542	143.64677	-608.64941	-289.38565	102.94701	-672.02728	-272.66531	110.74493	-550.97815	-222.26711	276.09781	-623.64313	-357.11899	84.99263	-607.16522	-178.65259	57.202644	-613.9859	-105.47013	38.83905	-630.37646	-164.96283	39.97168	-562.01569
9	0.08	-358.06735	143.68181	-608.68677	-289.36896	102.95788	-671.99457	-272.64871	110.74054	-550.99731	-222.24121	276.11392	-623.62573	-357.06717	85.021477	-607.06738	-178.6147	57.207985	-613.98004	-105.44263	38.849255	-630.36609	-164.94853	39.989391	-562.01123
10	0.09	-358.05994	143.65584	-608.68048	-289.35422	102.96256	-672.00067	-272.62689	110.73922	-551.00189	-222.2468	276.09439	-623.62921	-357.05795	84.985947	-606.98083	-178.61137	57.20713	-613.96027	-105.44551	38.848434	-630.35803	-164.96408	39.989349	-561.97992
11	0.1	-358.07407	143.62349	-608.82727	-289.35037	102.9248	-672.01489	-272.63443	110.74757	-550.98535	-222.24626	276.09915	-623.62933	-357.11813	84.998283	-607.16431	-178.62933	57.186043	-613.98187	-105.44573	38.85006	-630.37256	-164.95975	39.972992	-562.00928
12	0.11	-358.03906	143.62408	-608.83716	-289.3605	102.92487	-672.01117	-272.63849	110.76563	-550.99951	-222.23627	276.09204	-623.65576	-357.08557	85.018478	-607.0647	-178.61194	57.208996	-613.98596	-105.4282	38.86174	-630.39893	-164.9483	39.987949	-562.03687
13	0.12	-358.05225	143.61624	-608.83539	-289.35602	102.95846	-672.00092	-272.6434	110.741	-550.98737	-222.22974	276.0961	-623.62396	-357.09357	85.012512	-607.03741	-178.61305	57.206669	-613.96381	-105.43623	38.860744	-630.37311	-164.94998	39.989567	-562.00153
14	0.13	-358.01373	143.59206	-608.8576	-289.37384	102.89922	-671.99622	-272.6398	110.74946	-550.9809	-222.23335	276.07788	-623.63422	-357.08765	84.980843	-607.10876	-178.59767	57.202488	-613.99005	-105.43208	38.857918	-630.40063	-164.93312	39.976765	-562.01117
15	0.14	-358.064	143.63081	-608.85022	-289.37302	102.94498	-672.00824	-272.64658	110.76402	-550.97278	-222.22183	276.11502	-623.61322	-357.12592	85.045296	-607.09503	-178.61308	57.211182	-613.98907	-105.46298	38.882782	-630.40234	-164.95546	39.995926	-562.0155
16	0.15	-358.04593	143.6257	-608.77313	-289.33572	102.92567	-671.97986	-272.62582	110.74777	-550.95337	-222.22845	276.09131	-623.57574	-357.02432	85.012344	-606.84662	-178.59274	57.195026	-613.97211	-105.43795	38.847137	-630.35651	-164.94955	39.986462	-561.99908
17	0.16	-358.04849	143.60435	-608.80096	-289.36221	102.96193	-671.96918	-272.60968	110.75452	-550.94617	-222.22002	276.09497	-623.53204	-357.10349	84.997139	-607.01947	-178.5873	57.205864	-613.96667	-105.4286	38.85358	-630.38	-164.96182	39.973679	-562.00183
18	0.17	-358.09799	143.63997	-608.81519	-289.37399	102.93896	-671.95654	-272.63815	110.75002	-550.93756	-222.25249	276.10846	-623.50183	-357.18878	85.051254	-607.13879	-178.61557	57.198524	-613.97528	-105.48541	38.882069	-630.38458	-164.9758	39.976109	-562.01385
19	0.18	-358.05133	143.66132	-608.78021	-289.32764	102.92611	-671.92444	-272.66354	110.74009	-550.90149	-222.23419	276.12283	-623.45801	-357.12976	85.031479	-607.10364	-178.60336	57.202148	-613.9696	-105.43661	38.853821	-630.37384	-164.9615	39.972969	-561.99243
